<?xml version="1.0" encoding="utf-8"?>
<!-- Generator: Adobe Illustrator 15.1.0, SVG Export Plug-In . SVG Version: 6.00 Build 0)  -->
<!DOCTYPE svg PUBLIC "-//W3C//DTD SVG 1.1//EN" "http://www.w3.org/Graphics/SVG/1.1/DTD/svg11.dtd">
<svg version="1.1" id="Layer_1" xmlns="http://www.w3.org/2000/svg" xmlns:xlink="http://www.w3.org/1999/xlink" x="0px" y="0px"
	 width="512px" height="512px" viewBox="0 0 512 512" enable-background="new 0 0 512 512" xml:space="preserve">
<path fill="#73878C" d="M320.156,241.388c0,28.647,0,28.689,0,28.689v84.189c0,24.747-35.635,14.85-35.635,14.85l-75.242-75.245
	v-1.263h-12.38c-16.4,0-29.7-13.3-29.7-29.707v-14.106c0-16.4,13.299-29.689,29.7-29.689h1.487v40.457
	c0,3.076,2.497,5.577,5.57,5.577c3.072,0,5.569-2.501,5.569-5.577v-42.186l74.996-75.007c0,0,35.635-9.901,35.635,14.854V241.388z"
	/>
<linearGradient id="SVGID_1_" gradientUnits="userSpaceOnUse" x1="88.7588" y1="425.0283" x2="427.3046" y2="86.4825">
	<stop  offset="0" style="stop-color:#5C7AA6"/>
	<stop  offset="1" style="stop-color:#86D0E2"/>
</linearGradient>
<path fill="url(#SVGID_1_)" d="M258.007,495.225c-132.053,0-239.485-107.415-239.485-239.443
	c0-132.07,107.432-239.52,239.485-239.52c132.091,0,239.555,107.449,239.555,239.52C497.562,387.81,390.098,495.225,258.007,495.225
	z M258.007,37.811c-120.17,0-217.936,97.78-217.936,217.971c0,120.146,97.766,217.894,217.936,217.894
	c120.209,0,218.006-97.748,218.006-217.894C476.013,135.591,378.216,37.811,258.007,37.811z"/>
</svg>